<?xml version="1.0" standalone="no"?>
<!DOCTYPE svg PUBLIC "-//W3C//DTD SVG 20010904//EN"
 "http://www.w3.org/TR/2001/REC-SVG-20010904/DTD/svg10.dtd">
<svg version="1.0" xmlns="http://www.w3.org/2000/svg"
 width="332.000000pt" height="150.000000pt" viewBox="0 0 332.000000 150.000000"
 preserveAspectRatio="xMidYMid meet">

<g transform="translate(0.000000,150.000000) scale(0.100000,-0.100000)"
fill="#000000" stroke="none">
<path d="M0 750 l0 -750 1660 0 1660 0 0 750 0 750 -1660 0 -1660 0 0 -750z
m1713 480 c18 -17 19 -22 7 -30 -17 -11 -33 -2 -26 15 2 7 -1 18 -7 24 -20 20
3 12 26 -9z m-146 -81 c-14 -8 -22 -8 -30 0 -8 8 -3 11 19 11 25 -1 27 -2 11
-11z m313 1 c0 -13 -20 -13 -40 0 -12 8 -9 10 13 10 15 0 27 -4 27 -10z m34
-15 c-4 -8 -9 -15 -13 -15 -3 0 -6 -46 -6 -103 0 -98 -1 -105 -28 -141 -21
-26 -34 -35 -47 -31 -10 3 -21 1 -25 -5 -3 -6 -11 -8 -16 -4 -6 3 -1 12 10 21
28 19 59 81 67 135 3 23 13 49 22 56 14 10 13 12 -7 12 -17 0 -22 4 -17 16 3
9 6 21 6 28 0 6 12 19 28 28 33 21 33 21 26 3z m-234 -17 l17 -21 29 22 c24
18 37 20 77 15 39 -6 45 -9 35 -21 -8 -10 -13 -11 -18 -3 -5 7 -11 6 -20 -5
-7 -8 -21 -15 -31 -15 -26 0 -32 -15 -12 -31 10 -8 14 -9 10 -2 -4 6 -3 14 3
18 12 7 13 -15 2 -31 -4 -6 -14 -14 -22 -17 -8 -3 2 -6 22 -6 34 -1 37 1 41
32 2 17 3 7 1 -23 -3 -30 -15 -76 -28 -103 -13 -26 -19 -50 -14 -53 5 -3 4
-12 -3 -20 -6 -7 -15 -11 -20 -9 -13 9 -59 -6 -58 -19 3 -26 -2 -46 -12 -46
-5 0 -7 5 -4 10 3 6 1 10 -4 10 -16 0 -13 16 4 34 21 20 8 25 -47 17 -25 -4
-54 -4 -62 1 -33 18 -56 84 -56 156 0 61 -3 72 -22 85 -13 9 -18 16 -11 16 6
1 15 -3 18 -9 10 -17 25 -11 25 10 0 17 3 18 18 9 15 -9 17 -19 12 -48 -8 -47
5 -113 32 -167 22 -45 35 -53 55 -33 8 8 4 22 -13 52 -15 26 -26 67 -30 110
-4 37 -11 70 -15 73 -23 14 -5 29 37 31 37 2 50 -2 64 -19z m250 -23 c-7 -8
-17 -15 -22 -15 -6 0 -5 7 2 15 7 8 17 15 22 15 6 0 5 -7 -2 -15z m-392 -412
c3 -20 -1 -23 -27 -23 -27 0 -31 4 -31 26 0 22 4 25 28 22 19 -2 28 -9 30 -25z
m871 2 c7 -7 11 -20 8 -29 -5 -14 -10 -14 -41 -1 -26 11 -42 12 -61 5 -41 -16
-27 -41 32 -60 66 -22 83 -36 83 -70 0 -58 -94 -91 -165 -58 -27 12 -29 16
-16 37 7 10 13 11 30 1 12 -6 39 -10 59 -8 29 2 37 7 37 23 0 15 -14 24 -60
40 -47 16 -62 26 -69 48 -8 22 -6 32 10 54 12 15 32 31 45 35 32 9 91 0 108
-17z m459 -2 c3 -20 -1 -23 -27 -23 -23 0 -31 5 -31 18 0 25 10 33 35 30 12
-2 21 -12 23 -25z m-2418 -3 c26 -26 26 -81 0 -105 -11 -10 -42 -20 -70 -23
l-50 -5 0 -43 c0 -40 -2 -44 -25 -44 l-25 0 0 120 0 120 75 0 c62 0 79 -4 95
-20z m1288 -97 c-3 -114 -4 -118 -25 -121 -14 -2 -23 2 -23 9 0 10 -3 10 -12
1 -7 -7 -24 -12 -39 -12 -66 0 -102 88 -58 144 20 25 27 28 66 23 l43 -5 0 39
c0 35 3 39 26 39 l25 0 -3 -117z m382 -3 l0 -120 -25 0 c-14 0 -25 5 -25 12 0
9 -3 9 -12 0 -15 -15 -53 -16 -78 -2 -11 6 -24 27 -29 46 -20 72 34 137 94
114 24 -9 25 -8 25 30 0 36 3 40 25 40 l25 0 0 -120z m1010 0 l0 -120 -25 0
-25 0 0 120 0 120 25 0 25 0 0 -120z m-2401 49 c92 -32 67 -169 -31 -169 -92
0 -120 120 -37 162 19 10 34 18 35 18 1 0 15 -5 33 -11z m209 -28 c3 -20 1
-22 -15 -16 -26 12 -57 12 -61 0 -2 -5 9 -15 26 -20 60 -21 77 -52 45 -87 -30
-34 -147 -16 -125 19 6 9 17 10 39 4 33 -10 60 0 49 18 -4 6 -15 11 -25 11
-11 0 -29 8 -41 18 -18 14 -21 25 -17 44 13 50 118 57 125 9z m381 -7 c21 -47
16 -54 -45 -54 -47 0 -55 -3 -52 -17 3 -14 14 -18 50 -17 30 0 49 -5 52 -13 7
-17 -25 -33 -69 -33 -73 0 -111 84 -65 143 35 44 107 39 129 -9z m586 13 c9
-13 15 -45 15 -84 l0 -62 -57 0 c-71 0 -93 11 -93 47 0 38 17 52 62 52 27 0
38 4 38 15 0 22 -22 28 -55 15 -21 -8 -30 -8 -36 2 -11 17 -2 27 34 36 43 11
75 4 92 -21z m703 -4 c6 -9 12 -35 12 -57 0 -54 -30 -86 -81 -86 -50 0 -79 26
-86 75 -6 46 22 91 60 97 32 5 80 -9 95 -29z m429 -4 c7 -13 13 -50 13 -81 l0
-57 -57 0 c-71 0 -93 11 -93 47 0 38 17 52 62 52 27 0 38 4 38 15 0 22 -22 28
-55 15 -21 -8 -30 -8 -36 2 -11 17 -2 26 34 36 43 12 79 1 94 -29z m-2497 19
c0 -9 3 -9 12 0 20 20 58 15 58 -8 0 -15 -7 -20 -25 -20 -31 0 -45 -26 -45
-84 0 -39 -3 -46 -20 -46 -18 0 -20 7 -20 85 0 78 2 85 20 85 11 0 20 -5 20
-12z m590 -15 c26 -33 26 -83 -1 -118 -18 -22 -28 -26 -60 -23 -38 3 -39 3
-39 -29 0 -29 -3 -33 -25 -33 l-25 0 0 114 0 113 65 1 c58 1 66 -1 85 -25z
m270 15 c0 -9 3 -9 12 0 20 20 58 15 58 -7 0 -14 -8 -21 -27 -23 -27 -3 -28
-6 -31 -65 -3 -59 -4 -63 -27 -63 -25 0 -25 1 -25 85 0 78 2 85 20 85 11 0 20
-5 20 -12z m130 -73 c0 -78 -2 -85 -20 -85 -18 0 -20 7 -20 85 0 78 2 85 20
85 18 0 20 -7 20 -85z m1258 58 c4 -26 -1 -28 -29 -13 -40 22 -82 -28 -59 -71
10 -18 18 -21 50 -16 27 3 40 1 44 -9 12 -30 -81 -47 -116 -20 -29 21 -40 64
-28 102 15 43 34 54 90 51 38 -2 45 -5 48 -24z m72 -58 c0 -78 -2 -85 -20 -85
-18 0 -20 7 -20 85 0 78 2 85 20 85 18 0 20 -7 20 -85z m-1160 -235 c0 -19 -7
-20 -120 -20 -113 0 -120 1 -120 20 0 19 7 20 120 20 113 0 120 -1 120 -20z"/>
<path d="M1640 1110 c-24 -8 -23 -8 8 -9 20 -1 31 3 27 9 -3 6 -7 10 -8 9 -1
-1 -13 -5 -27 -9z"/>
<path d="M1600 1067 l0 -47 37 0 c37 0 37 0 15 16 -12 8 -22 23 -22 32 0 12 3
13 11 5 6 -6 19 -9 28 -6 11 4 10 1 -4 -10 -11 -9 -15 -17 -9 -17 5 0 15 5 22
12 16 16 -3 38 -32 38 -12 0 -27 5 -34 12 -9 9 -12 2 -12 -35z"/>
<path d="M1743 1103 c9 -2 25 -2 35 0 9 3 1 5 -18 5 -19 0 -27 -2 -17 -5z"/>
<path d="M1701 1074 c0 -11 3 -14 6 -6 3 7 2 16 -1 19 -3 4 -6 -2 -5 -13z"/>
<path d="M1720 1040 c0 -5 -6 -7 -14 -4 -8 3 -17 1 -21 -5 -4 -7 4 -11 19 -11
16 0 26 6 26 15 0 8 -2 15 -5 15 -3 0 -5 -4 -5 -10z"/>
<path d="M1694 1004 c-13 -5 -7 -44 6 -44 5 0 15 -3 24 -6 12 -5 13 0 7 22 -7
28 -17 36 -37 28z"/>
<path d="M1639 913 c6 -12 23 -31 37 -42 28 -22 45 -19 76 16 17 18 16 19 -30
20 -30 0 -38 -1 -24 -6 26 -7 31 -24 9 -29 -8 -2 -29 12 -47 30 -22 23 -29 26
-21 11z"/>
<path d="M330 625 c0 -33 2 -35 34 -35 44 0 70 24 56 51 -8 14 -21 19 -50 19
-39 0 -40 -1 -40 -35z"/>
<path d="M1628 589 c-34 -19 -20 -89 18 -89 39 0 58 55 28 84 -18 19 -23 19
-46 5z"/>
<path d="M2006 584 c-30 -29 -11 -84 28 -84 39 0 52 71 17 90 -25 13 -27 13
-45 -6z"/>
<path d="M676 584 c-29 -28 -17 -84 18 -84 28 0 46 18 46 46 0 22 -24 54 -40
54 -5 0 -16 -7 -24 -16z"/>
<path d="M1232 588 c-19 -19 -14 -28 16 -28 35 0 45 9 31 27 -14 16 -31 17
-47 1z"/>
<path d="M1831 529 c-19 -7 -21 -12 -11 -24 14 -17 50 -3 50 20 0 17 -5 18
-39 4z"/>
<path d="M2518 589 c-34 -19 -20 -89 18 -89 41 0 56 69 20 92 -14 10 -17 9
-38 -3z"/>
<path d="M2961 529 c-19 -7 -21 -12 -11 -24 14 -17 50 -3 50 20 0 17 -5 18
-39 4z"/>
<path d="M1035 576 c-24 -35 -5 -78 33 -74 23 3 28 8 30 38 3 24 -2 38 -14 47
-25 18 -31 17 -49 -11z"/>
</g>
</svg>
