<?xml version="1.0" standalone="no"?>
<!DOCTYPE svg PUBLIC "-//W3C//DTD SVG 20010904//EN"
 "http://www.w3.org/TR/2001/REC-SVG-20010904/DTD/svg10.dtd">
<svg version="1.0" xmlns="http://www.w3.org/2000/svg"
 width="322.000000pt" height="188.000000pt" viewBox="0 0 322.000000 188.000000"
 preserveAspectRatio="xMidYMid meet">

<g transform="translate(0.000000,188.000000) scale(0.100000,-0.100000)"
fill="#000000" stroke="none">
<path d="M1664 1333 c-17 -10 -49 -33 -70 -51 l-39 -32 35 6 c19 4 43 11 52
16 16 8 65 4 75 -6 9 -9 10 -41 1 -52 -6 -8 -1 -11 16 -10 13 0 24 3 24 6 -3
14 22 58 35 63 17 6 58 2 112 -12 22 -5 41 -9 42 -7 9 9 -109 87 -133 89 -24
2 -29 -2 -34 -27 -6 -37 -25 -44 -40 -15 -10 17 -9 20 2 13 7 -4 4 2 -6 14
-23 27 -32 27 -72 5z"/>
<path d="M1897 1201 c-4 -17 -3 -21 5 -13 5 5 8 16 6 23 -3 8 -7 3 -11 -10z"/>
<path d="M1670 1170 c0 -33 3 -40 20 -40 10 0 24 9 30 21 11 19 12 19 24 3 7
-9 19 -14 27 -11 10 4 9 6 -4 6 -14 1 -17 7 -13 24 3 12 3 17 0 10 -4 -9 -11
-9 -25 -3 -10 6 -28 15 -39 20 -18 9 -20 7 -20 -30z m48 -7 c-6 -7 -14 -10
-19 -7 -15 9 -10 20 10 20 15 0 17 -3 9 -13z"/>
<path d="M1827 1203 c-2 -5 -7 -21 -11 -36 -4 -18 -11 -25 -19 -21 -7 4 -8 3
-4 -1 12 -14 41 -15 50 -2 13 18 -4 -54 -19 -85 -11 -21 -19 -26 -41 -22 -15
3 -30 7 -35 10 -4 3 -8 1 -8 -3 0 -14 38 -33 54 -27 8 3 17 1 21 -5 3 -6 1
-11 -6 -11 -20 0 -1 -14 24 -17 16 -2 18 -1 8 6 -11 7 -10 14 7 38 29 41 46
115 35 149 -9 26 -9 26 -28 8 -18 -19 -18 -19 -13 4 6 20 -6 31 -15 15z"/>
<path d="M1626 1169 c-7 -34 16 -122 39 -153 14 -18 16 -18 33 -2 16 14 21 14
31 2 9 -11 5 -15 -24 -20 -23 -5 -42 -3 -51 5 -10 8 -14 8 -14 0 0 -12 32 -20
75 -18 28 2 30 0 29 -30 -2 -37 15 -43 33 -13 13 20 2 70 -15 70 -5 0 -20 9
-33 21 -13 11 -30 24 -38 29 -8 4 -19 36 -25 71 -13 70 -30 86 -40 38z m141
-175 c-3 -3 -12 -4 -19 -1 -8 3 -5 6 6 6 11 1 17 -2 13 -5z"/>
<path d="M1780 1186 c0 -2 6 -9 13 -15 10 -8 14 -7 14 4 0 8 -6 15 -14 15 -7
0 -13 -2 -13 -4z"/>
<path d="M1909 1178 c-6 -21 -5 -39 2 -44 5 -3 9 6 9 20 0 21 -7 36 -11 24z"/>
<path d="M1744 1116 c-4 -11 -2 -21 7 -27 31 -19 38 -5 15 27 -14 18 -15 18
-22 0z"/>
<path d="M578 833 c-6 -78 3 -163 18 -163 10 0 14 12 14 40 l0 40 40 0 c45 0
80 27 80 60 0 38 -35 60 -94 60 l-55 0 -3 -37z m107 -23 c0 -22 -5 -25 -37
-28 -36 -3 -38 -2 -38 28 0 30 2 31 38 28 32 -3 37 -6 37 -28z"/>
<path d="M1570 855 c0 -8 9 -15 20 -15 11 0 20 7 20 15 0 8 -9 15 -20 15 -11
0 -20 -7 -20 -15z"/>
<path d="M1740 837 c0 -32 -2 -33 -30 -29 -41 6 -70 -21 -70 -65 0 -49 27 -71
89 -71 l51 0 0 99 c0 92 -1 99 -20 99 -16 0 -20 -7 -20 -33z m-11 -61 c19 -22
10 -70 -13 -75 -20 -3 -46 22 -46 45 0 14 27 44 39 44 5 0 14 -6 20 -14z"/>
<path d="M2060 837 c0 -32 -1 -33 -33 -29 -44 5 -67 -18 -67 -67 0 -57 54 -93
88 -59 9 9 12 9 12 0 0 -7 9 -12 20 -12 19 0 20 7 20 100 0 93 -1 100 -20 100
-16 0 -20 -7 -20 -33z m0 -98 c0 -33 -23 -48 -49 -32 -39 24 -11 94 30 73 12
-7 19 -21 19 -41z"/>
<path d="M2234 862 c-6 -4 -16 -17 -23 -29 -18 -34 2 -60 57 -76 55 -16 68
-43 26 -53 -15 -4 -40 -2 -55 3 -22 9 -29 8 -33 -3 -4 -9 4 -18 20 -24 44 -17
83 -12 109 14 36 36 22 66 -41 88 -35 11 -49 21 -49 35 0 13 9 19 33 21 18 2
39 -2 47 -8 10 -8 15 -8 21 1 17 27 -78 54 -112 31z"/>
<path d="M2680 855 c0 -8 9 -15 20 -15 11 0 20 7 20 15 0 8 -9 15 -20 15 -11
0 -20 -7 -20 -15z"/>
<path d="M2900 770 c0 -93 1 -100 20 -100 19 0 20 7 20 100 0 93 -1 100 -20
100 -19 0 -20 -7 -20 -100z"/>
<path d="M750 739 c0 -62 2 -69 19 -69 17 0 20 8 23 53 3 45 6 52 26 55 12 2
22 9 22 17 0 9 -14 13 -45 13 l-45 0 0 -69z"/>
<path d="M866 788 c-36 -51 -5 -118 54 -118 59 0 90 67 54 118 -11 16 -25 22
-54 22 -29 0 -43 -6 -54 -22z m73 -12 c7 -8 11 -27 9 -43 -2 -22 -8 -28 -28
-28 -20 0 -26 6 -28 28 -3 27 12 57 28 57 4 0 13 -6 19 -14z"/>
<path d="M1021 791 c-15 -28 -4 -50 32 -59 45 -12 48 -34 4 -31 -40 4 -59 -7
-37 -21 25 -16 76 -11 94 9 24 26 7 56 -35 65 -41 8 -33 32 10 28 23 -2 31 2
29 10 -3 7 -23 14 -46 16 -32 2 -43 -1 -51 -17z"/>
<path d="M1150 714 c0 -87 1 -94 20 -94 16 0 20 7 20 30 0 27 2 30 25 24 41
-10 75 19 75 65 0 52 -22 70 -88 69 l-52 0 0 -94z m106 40 c8 -30 -12 -56 -40
-52 -15 2 -22 12 -24 33 -6 53 51 70 64 19z"/>
<path d="M1337 798 c-9 -7 -20 -27 -23 -45 -12 -60 63 -105 112 -68 20 15 19
16 -36 18 -23 1 -36 7 -38 18 -2 12 6 15 43 12 42 -3 45 -2 45 20 0 47 -63 74
-103 45z m61 -20 c19 -19 14 -28 -18 -28 -16 0 -30 4 -30 8 0 9 21 32 30 32 3
0 11 -5 18 -12z"/>
<path d="M1470 738 c0 -54 3 -68 15 -68 11 0 15 11 15 43 0 46 13 67 42 67 10
0 18 6 18 14 0 10 -13 14 -45 14 l-45 -1 0 -69z"/>
<path d="M1576 743 c2 -54 5 -69 18 -71 13 -3 16 8 16 67 0 61 -2 71 -17 71
-16 0 -18 -9 -17 -67z"/>
<path d="M1827 803 c-4 -3 -7 -12 -7 -19 0 -10 6 -11 26 -4 19 7 31 7 40 -1
18 -15 8 -29 -21 -29 -38 0 -55 -11 -55 -35 0 -32 18 -43 73 -43 l47 1 0 49
c0 70 -12 88 -59 88 -21 0 -41 -3 -44 -7z m66 -88 c-6 -17 -39 -20 -48 -5 -6
10 35 31 47 24 4 -3 5 -11 1 -19z"/>
<path d="M2397 792 c-23 -25 -21 -78 3 -102 27 -27 66 -25 97 6 20 20 24 31
19 57 -3 18 -14 38 -23 45 -25 18 -77 15 -96 -6z m81 -55 c-4 -38 -34 -49 -55
-21 -17 23 -16 39 3 58 25 25 56 3 52 -37z"/>
<path d="M2557 792 c-23 -25 -21 -78 3 -102 21 -21 65 -26 89 -11 21 14 5 29
-25 23 -19 -3 -31 1 -41 13 -17 25 -17 31 7 55 16 16 25 18 40 10 12 -7 21 -7
25 0 20 33 -70 43 -98 12z"/>
<path d="M2680 740 c0 -63 2 -70 20 -70 18 0 20 7 20 70 0 63 -2 70 -20 70
-18 0 -20 -7 -20 -70z"/>
<path d="M2763 804 c-7 -3 -9 -11 -7 -19 4 -10 12 -11 31 -4 28 10 43 5 43
-16 0 -9 -14 -15 -37 -17 -31 -2 -39 -7 -41 -26 -5 -37 14 -51 69 -50 l49 1 0
49 c0 70 -12 88 -58 87 -20 0 -42 -3 -49 -5z m65 -81 c-4 -20 -39 -25 -45 -6
-4 10 11 18 40 22 5 0 7 -7 5 -16z"/>
<path d="M1750 545 c0 -12 18 -15 105 -15 87 0 105 3 105 15 0 12 -18 15 -105
15 -87 0 -105 -3 -105 -15z"/>
</g>
</svg>
